<?xml version="1.0" encoding="UTF-8" standalone="no"?>
<!DOCTYPE svg PUBLIC "-//W3C//DTD SVG 1.1//EN"
 "http://www.w3.org/Graphics/SVG/1.1/DTD/svg11.dtd">
<!-- Generated by graphviz version 2.43.0 (0)
 -->
<!-- Title: DNS Exfiltration Detection &amp; Auto&#45;Blocking Pages: 1 -->
<svg width="673pt" height="1642pt"
 viewBox="0.00 0.00 673.00 1642.00" xmlns="http://www.w3.org/2000/svg" xmlns:xlink="http://www.w3.org/1999/xlink">
<g id="graph0" class="graph" transform="scale(1 1) rotate(0) translate(144 1498)">
<title>DNS Exfiltration Detection &amp; Auto&#45;Blocking</title>
<polygon fill="white" stroke="transparent" points="-144,144 -144,-1498 529,-1498 529,144 -144,144"/>
<text text-anchor="middle" x="192.5" y="-9.2" font-family="Sans-Serif" font-size="16.00" fill="#2d3436">DNS Exfiltration Detection &amp; Auto&#45;Blocking</text>
<g id="clust1" class="cluster">
<title>cluster_Detection Engine</title>
<path fill="#e5f5fd" stroke="#aeb6be" d="M20,-34C20,-34 258,-34 258,-34 264,-34 270,-40 270,-46 270,-46 270,-417 270,-417 270,-423 264,-429 258,-429 258,-429 20,-429 20,-429 14,-429 8,-423 8,-417 8,-417 8,-46 8,-46 8,-40 14,-34 20,-34"/>
<text text-anchor="middle" x="65" y="-415.4" font-family="Sans-Serif" font-size="12.00" fill="#2d3436">Detection Engine</text>
</g>
<g id="clust2" class="cluster">
<title>cluster_Automation</title>
<path fill="#e5f5fd" stroke="#aeb6be" d="M244,-938C244,-938 338,-938 338,-938 344,-938 350,-944 350,-950 350,-950 350,-1334 350,-1334 350,-1340 344,-1346 338,-1346 338,-1346 244,-1346 244,-1346 238,-1346 232,-1340 232,-1334 232,-1334 232,-950 232,-950 232,-944 238,-938 244,-938"/>
<text text-anchor="middle" x="274" y="-1332.4" font-family="Sans-Serif" font-size="12.00" fill="#2d3436">Automation</text>
</g>
<!-- 4ec436f5caa646b9870d4cca77eac52d -->
<g id="node1" class="node">
<title>4ec436f5caa646b9870d4cca77eac52d</title>
<image xlink:href="/media/psf/Home/vmshare/dnsexfil/diagrams/venv/lib/python3.12/site-packages/resources/aws/compute/ec2.png" width="101px" height="101px" preserveAspectRatio="xMinYMin meet" x="50.5" y="-1079.5"/>
<text text-anchor="middle" x="101" y="-963.6" font-family="Sans-Serif" font-size="13.00" fill="#2d3436">Test Client</text>
<text text-anchor="middle" x="101" y="-949.6" font-family="Sans-Serif" font-size="13.00" fill="#2d3436">(Exfiltration)</text>
</g>
<!-- 7922b0d2c9ad4c8a9f447f7f9e46bf5a -->
<g id="node2" class="node">
<title>7922b0d2c9ad4c8a9f447f7f9e46bf5a</title>
<image xlink:href="/media/psf/Home/vmshare/dnsexfil/diagrams/venv/lib/python3.12/site-packages/resources/aws/network/route-53.png" width="101px" height="101px" preserveAspectRatio="xMinYMin meet" x="149.5" y="-845.5"/>
<text text-anchor="middle" x="200" y="-729.6" font-family="Sans-Serif" font-size="13.00" fill="#2d3436">DNS Firewall</text>
<text text-anchor="middle" x="200" y="-715.6" font-family="Sans-Serif" font-size="13.00" fill="#2d3436">(Auto&#45;blocking)</text>
</g>
<!-- 4ec436f5caa646b9870d4cca77eac52d&#45;&gt;7922b0d2c9ad4c8a9f447f7f9e46bf5a -->
<g id="edge1" class="edge">
<title>4ec436f5caa646b9870d4cca77eac52d&#45;&gt;7922b0d2c9ad4c8a9f447f7f9e46bf5a</title>
<path fill="none" stroke="red" d="M133.5,-945.84C133.5,-878.58 133.5,-795 133.5,-795 133.5,-795 139.26,-795 139.26,-795"/>
<polygon fill="red" stroke="red" points="139.26,-798.5 149.26,-795 139.26,-791.5 139.26,-798.5"/>
<text text-anchor="middle" x="140.5" y="-908.6" font-family="Sans-Serif" font-size="13.00" fill="#2d3436">DNS Queries</text>
</g>
<!-- fe6ae31e33a24caabc881e8513784d42 -->
<g id="node3" class="node">
<title>fe6ae31e33a24caabc881e8513784d42</title>
<image xlink:href="/media/psf/Home/vmshare/dnsexfil/diagrams/venv/lib/python3.12/site-packages/resources/aws/network/route-53.png" width="101px" height="101px" preserveAspectRatio="xMinYMin meet" x="149.5" y="-611.5"/>
<text text-anchor="middle" x="200" y="-495.6" font-family="Sans-Serif" font-size="13.00" fill="#2d3436">Route 53 Resolver</text>
<text text-anchor="middle" x="200" y="-481.6" font-family="Sans-Serif" font-size="13.00" fill="#2d3436">(Logging)</text>
</g>
<!-- 7922b0d2c9ad4c8a9f447f7f9e46bf5a&#45;&gt;fe6ae31e33a24caabc881e8513784d42 -->
<g id="edge2" class="edge">
<title>7922b0d2c9ad4c8a9f447f7f9e46bf5a&#45;&gt;fe6ae31e33a24caabc881e8513784d42</title>
<path fill="none" stroke="green" d="M200,-711.84C200,-711.84 200,-654.28 200,-654.28"/>
<polygon fill="green" stroke="green" points="203.5,-654.28 200,-644.28 196.5,-654.28 203.5,-654.28"/>
<text text-anchor="middle" x="224.5" y="-674.6" font-family="Sans-Serif" font-size="13.00" fill="#2d3436">Allowed</text>
</g>
<!-- 2feff869336a47db9950745aff29f3c1 -->
<g id="node4" class="node">
<title>2feff869336a47db9950745aff29f3c1</title>
<image xlink:href="/media/psf/Home/vmshare/dnsexfil/diagrams/venv/lib/python3.12/site-packages/resources/aws/storage/simple-storage-service-s3.png" width="101px" height="101px" preserveAspectRatio="xMinYMin meet" x="160.5" y="-382"/>
<text text-anchor="middle" x="211" y="-266.6" font-family="Sans-Serif" font-size="13.00" fill="#2d3436">DNS Logs</text>
</g>
<!-- fe6ae31e33a24caabc881e8513784d42&#45;&gt;2feff869336a47db9950745aff29f3c1 -->
<g id="edge3" class="edge">
<title>fe6ae31e33a24caabc881e8513784d42&#45;&gt;2feff869336a47db9950745aff29f3c1</title>
<path fill="none" stroke="blue" d="M205.5,-477.82C205.5,-477.82 205.5,-410.07 205.5,-410.07"/>
<polygon fill="blue" stroke="blue" points="209,-410.07 205.5,-400.07 202,-410.07 209,-410.07"/>
<text text-anchor="middle" x="220.5" y="-440.6" font-family="Sans-Serif" font-size="13.00" fill="#2d3436">Logs</text>
</g>
<!-- f51470b56caf4137ac0cadd8784d9e58 -->
<g id="node5" class="node">
<title>f51470b56caf4137ac0cadd8784d9e58</title>
<image xlink:href="/media/psf/Home/vmshare/dnsexfil/diagrams/venv/lib/python3.12/site-packages/resources/aws/analytics/athena.png" width="101px" height="101px" preserveAspectRatio="xMinYMin meet" x="160.5" y="-175.5"/>
<text text-anchor="middle" x="211" y="-59.6" font-family="Sans-Serif" font-size="13.00" fill="#2d3436">Threat Detection</text>
<text text-anchor="middle" x="211" y="-45.6" font-family="Sans-Serif" font-size="13.00" fill="#2d3436">(3 Queries)</text>
</g>
<!-- 2feff869336a47db9950745aff29f3c1&#45;&gt;f51470b56caf4137ac0cadd8784d9e58 -->
<g id="edge6" class="edge">
<title>2feff869336a47db9950745aff29f3c1&#45;&gt;f51470b56caf4137ac0cadd8784d9e58</title>
<path fill="none" stroke="#7b8894" d="M211,-262.74C211,-262.74 211,-218.17 211,-218.17"/>
<polygon fill="#7b8894" stroke="#7b8894" points="214.5,-218.17 211,-208.17 207.5,-218.17 214.5,-218.17"/>
</g>
<!-- a39abd8a480648ee9c2b92ad40cfe6d6 -->
<g id="node6" class="node">
<title>a39abd8a480648ee9c2b92ad40cfe6d6</title>
<image xlink:href="/media/psf/Home/vmshare/dnsexfil/diagrams/venv/lib/python3.12/site-packages/resources/aws/storage/simple-storage-service-s3.png" width="101px" height="101px" preserveAspectRatio="xMinYMin meet" x="16.5" y="-382"/>
<text text-anchor="middle" x="67" y="-266.6" font-family="Sans-Serif" font-size="13.00" fill="#2d3436">PSL Data</text>
</g>
<!-- a39abd8a480648ee9c2b92ad40cfe6d6&#45;&gt;f51470b56caf4137ac0cadd8784d9e58 -->
<g id="edge7" class="edge">
<title>a39abd8a480648ee9c2b92ad40cfe6d6&#45;&gt;f51470b56caf4137ac0cadd8784d9e58</title>
<path fill="none" stroke="#7b8894" d="M67,-262.74C67,-202.67 67,-125 67,-125 67,-125 150.23,-125 150.23,-125"/>
<polygon fill="#7b8894" stroke="#7b8894" points="150.23,-128.5 160.23,-125 150.23,-121.5 150.23,-128.5"/>
</g>
<!-- 93b89bd13b4042659e6d6f531a8adf3a -->
<g id="node7" class="node">
<title>93b89bd13b4042659e6d6f531a8adf3a</title>
<image xlink:href="/media/psf/Home/vmshare/dnsexfil/diagrams/venv/lib/python3.12/site-packages/resources/aws/integration/eventbridge.png" width="101px" height="101px" preserveAspectRatio="xMinYMin meet" x="240.5" y="-1299"/>
<text text-anchor="middle" x="291" y="-1183.6" font-family="Sans-Serif" font-size="13.00" fill="#2d3436">1&#45;min Schedule</text>
</g>
<!-- 3f089b1eec244332837f79d19eeca8ad -->
<g id="node8" class="node">
<title>3f089b1eec244332837f79d19eeca8ad</title>
<image xlink:href="/media/psf/Home/vmshare/dnsexfil/diagrams/venv/lib/python3.12/site-packages/resources/aws/compute/lambda.png" width="101px" height="101px" preserveAspectRatio="xMinYMin meet" x="240.5" y="-1079.5"/>
<text text-anchor="middle" x="291" y="-963.6" font-family="Sans-Serif" font-size="13.00" fill="#2d3436">Threat Detection</text>
<text text-anchor="middle" x="291" y="-949.6" font-family="Sans-Serif" font-size="13.00" fill="#2d3436">Lambda</text>
</g>
<!-- 93b89bd13b4042659e6d6f531a8adf3a&#45;&gt;3f089b1eec244332837f79d19eeca8ad -->
<g id="edge4" class="edge">
<title>93b89bd13b4042659e6d6f531a8adf3a&#45;&gt;3f089b1eec244332837f79d19eeca8ad</title>
<path fill="none" stroke="orange" d="M291,-1179.95C291,-1179.95 291,-1122.06 291,-1122.06"/>
<polygon fill="orange" stroke="orange" points="294.5,-1122.06 291,-1112.06 287.5,-1122.06 294.5,-1122.06"/>
<text text-anchor="middle" x="313.5" y="-1142.6" font-family="Sans-Serif" font-size="13.00" fill="#2d3436">Trigger</text>
</g>
<!-- 3f089b1eec244332837f79d19eeca8ad&#45;&gt;7922b0d2c9ad4c8a9f447f7f9e46bf5a -->
<g id="edge8" class="edge">
<title>3f089b1eec244332837f79d19eeca8ad&#45;&gt;7922b0d2c9ad4c8a9f447f7f9e46bf5a</title>
<path fill="none" stroke="red" stroke-width="2" d="M245.5,-945.84C245.5,-945.84 245.5,-888.28 245.5,-888.28"/>
<polygon fill="red" stroke="red" stroke-width="2" points="249,-888.28 245.5,-878.28 242,-888.28 249,-888.28"/>
<text text-anchor="middle" x="269" y="-908.6" font-family="Sans-Serif" font-size="13.00" fill="#2d3436">Block Threats</text>
</g>
<!-- 3f089b1eec244332837f79d19eeca8ad&#45;&gt;f51470b56caf4137ac0cadd8784d9e58 -->
<g id="edge5" class="edge">
<title>3f089b1eec244332837f79d19eeca8ad&#45;&gt;f51470b56caf4137ac0cadd8784d9e58</title>
<path fill="none" stroke="purple" d="M301.5,-945.98C301.5,-722.5 301.5,-125 301.5,-125 301.5,-125 271.54,-125 271.54,-125"/>
<polygon fill="purple" stroke="purple" points="271.54,-121.5 261.54,-125 271.54,-128.5 271.54,-121.5"/>
<text text-anchor="middle" x="361" y="-557.6" font-family="Sans-Serif" font-size="13.00" fill="#2d3436">Analyze</text>
</g>
</g>
</svg>
