<?xml version="1.0" encoding="UTF-8" standalone="no"?>
<!DOCTYPE svg PUBLIC "-//W3C//DTD SVG 1.1//EN"
 "http://www.w3.org/Graphics/SVG/1.1/DTD/svg11.dtd">
<!-- Generated by graphviz version 2.43.0 (0)
 -->
<!-- Title: DNS Exfiltration Detection System Pages: 1 -->
<svg width="754pt" height="886pt"
 viewBox="0.00 0.00 754.00 886.00" xmlns="http://www.w3.org/2000/svg" xmlns:xlink="http://www.w3.org/1999/xlink">
<g id="graph0" class="graph" transform="scale(1 1) rotate(0) translate(144 742)">
<title>DNS Exfiltration Detection System</title>
<polygon fill="white" stroke="transparent" points="-144,144 -144,-742 610,-742 610,144 -144,144"/>
<text text-anchor="middle" x="233" y="-9.2" font-family="Sans-Serif" font-size="16.00" fill="#2d3436">DNS Exfiltration Detection System</text>
<g id="clust1" class="cluster">
<title>cluster_VPC</title>
<path fill="#e5f5fd" stroke="#aeb6be" d="M208,-416C208,-416 446,-416 446,-416 452,-416 458,-422 458,-428 458,-428 458,-578 458,-578 458,-584 452,-590 446,-590 446,-590 208,-590 208,-590 202,-590 196,-584 196,-578 196,-578 196,-428 196,-428 196,-422 202,-416 208,-416"/>
<text text-anchor="middle" x="215.5" y="-576.4" font-family="Sans-Serif" font-size="12.00" fill="#2d3436">VPC</text>
</g>
<g id="clust2" class="cluster">
<title>cluster_Storage</title>
<path fill="#e5f5fd" stroke="#aeb6be" d="M20,-34C20,-34 258,-34 258,-34 264,-34 270,-40 270,-46 270,-46 270,-196 270,-196 270,-202 264,-208 258,-208 258,-208 20,-208 20,-208 14,-208 8,-202 8,-196 8,-196 8,-46 8,-46 8,-40 14,-34 20,-34"/>
<text text-anchor="middle" x="38.5" y="-194.4" font-family="Sans-Serif" font-size="12.00" fill="#2d3436">Storage</text>
</g>
<g id="clust3" class="cluster">
<title>cluster_Analytics</title>
<path fill="#e5f5fd" stroke="#aeb6be" d="M20,-225C20,-225 114,-225 114,-225 120,-225 126,-231 126,-237 126,-237 126,-578 126,-578 126,-584 120,-590 114,-590 114,-590 20,-590 20,-590 14,-590 8,-584 8,-578 8,-578 8,-237 8,-237 8,-231 14,-225 20,-225"/>
<text text-anchor="middle" x="41.5" y="-576.4" font-family="Sans-Serif" font-size="12.00" fill="#2d3436">Analytics</text>
</g>
<!-- 5f5dd843d44e4e94900bfcaa536351bd -->
<g id="node1" class="node">
<title>5f5dd843d44e4e94900bfcaa536351bd</title>
<image xlink:href="/media/psf/Home/vmshare/dnsexfil/diagrams/venv/lib/python3.12/site-packages/resources/aws/network/route-53.png" width="101px" height="101px" preserveAspectRatio="xMinYMin meet" x="248.5" y="-352"/>
<text text-anchor="middle" x="299" y="-236.6" font-family="Sans-Serif" font-size="13.00" fill="#2d3436">Route 53 Resolver</text>
</g>
<!-- 3673004e2b55418387f63141f7894e46 -->
<g id="node4" class="node">
<title>3673004e2b55418387f63141f7894e46</title>
<image xlink:href="/media/psf/Home/vmshare/dnsexfil/diagrams/venv/lib/python3.12/site-packages/resources/aws/storage/simple-storage-service-s3.png" width="101px" height="101px" preserveAspectRatio="xMinYMin meet" x="160.5" y="-161"/>
<text text-anchor="middle" x="211" y="-45.6" font-family="Sans-Serif" font-size="13.00" fill="#2d3436">DNS Logs</text>
</g>
<!-- 5f5dd843d44e4e94900bfcaa536351bd&#45;&gt;3673004e2b55418387f63141f7894e46 -->
<g id="edge3" class="edge">
<title>5f5dd843d44e4e94900bfcaa536351bd&#45;&gt;3673004e2b55418387f63141f7894e46</title>
<path fill="none" stroke="#7b8894" d="M255,-232.81C255,-232.81 255,-189.22 255,-189.22"/>
<polygon fill="#7b8894" stroke="#7b8894" points="258.5,-189.22 255,-179.22 251.5,-189.22 258.5,-189.22"/>
</g>
<!-- b98406196ebd4f41baa4e1eac16ccc82 -->
<g id="node2" class="node">
<title>b98406196ebd4f41baa4e1eac16ccc82</title>
<image xlink:href="/media/psf/Home/vmshare/dnsexfil/diagrams/venv/lib/python3.12/site-packages/resources/aws/compute/ec2.png" width="101px" height="101px" preserveAspectRatio="xMinYMin meet" x="348.5" y="-543"/>
<text text-anchor="middle" x="399" y="-427.6" font-family="Sans-Serif" font-size="13.00" fill="#2d3436">Test Client</text>
</g>
<!-- b98406196ebd4f41baa4e1eac16ccc82&#45;&gt;5f5dd843d44e4e94900bfcaa536351bd -->
<g id="edge1" class="edge">
<title>b98406196ebd4f41baa4e1eac16ccc82&#45;&gt;5f5dd843d44e4e94900bfcaa536351bd</title>
<path fill="none" stroke="#7b8894" d="M348.21,-492C336.3,-492 327,-492 327,-492 327,-492 327,-380.01 327,-380.01"/>
<polygon fill="#7b8894" stroke="#7b8894" points="330.5,-380.01 327,-370.01 323.5,-380.01 330.5,-380.01"/>
</g>
<!-- a005a67a27a2498cb2cfbbd6e542fc84 -->
<g id="node3" class="node">
<title>a005a67a27a2498cb2cfbbd6e542fc84</title>
<image xlink:href="/media/psf/Home/vmshare/dnsexfil/diagrams/venv/lib/python3.12/site-packages/resources/aws/compute/ec2.png" width="101px" height="101px" preserveAspectRatio="xMinYMin meet" x="204.5" y="-543"/>
<text text-anchor="middle" x="255" y="-427.6" font-family="Sans-Serif" font-size="13.00" fill="#2d3436">App Server</text>
</g>
<!-- a005a67a27a2498cb2cfbbd6e542fc84&#45;&gt;5f5dd843d44e4e94900bfcaa536351bd -->
<g id="edge2" class="edge">
<title>a005a67a27a2498cb2cfbbd6e542fc84&#45;&gt;5f5dd843d44e4e94900bfcaa536351bd</title>
<path fill="none" stroke="#7b8894" d="M277,-423.81C277,-423.81 277,-380.22 277,-380.22"/>
<polygon fill="#7b8894" stroke="#7b8894" points="280.5,-380.22 277,-370.22 273.5,-380.22 280.5,-380.22"/>
</g>
<!-- ccc2fcfbf5264749a59771fb9d05fdce -->
<g id="node6" class="node">
<title>ccc2fcfbf5264749a59771fb9d05fdce</title>
<image xlink:href="/media/psf/Home/vmshare/dnsexfil/diagrams/venv/lib/python3.12/site-packages/resources/aws/analytics/glue.png" width="101px" height="101px" preserveAspectRatio="xMinYMin meet" x="16.5" y="-543"/>
<text text-anchor="middle" x="67" y="-427.6" font-family="Sans-Serif" font-size="13.00" fill="#2d3436">Glue Catalog</text>
</g>
<!-- 3673004e2b55418387f63141f7894e46&#45;&gt;ccc2fcfbf5264749a59771fb9d05fdce -->
<g id="edge4" class="edge">
<title>3673004e2b55418387f63141f7894e46&#45;&gt;ccc2fcfbf5264749a59771fb9d05fdce</title>
<path fill="none" stroke="#7b8894" d="M182.5,-179.15C182.5,-288.98 182.5,-492 182.5,-492 182.5,-492 127.66,-492 127.66,-492"/>
<polygon fill="#7b8894" stroke="#7b8894" points="127.66,-488.5 117.66,-492 127.66,-495.5 127.66,-488.5"/>
</g>
<!-- cfe3226389a54cfb94a2346367f3cb7e -->
<g id="node5" class="node">
<title>cfe3226389a54cfb94a2346367f3cb7e</title>
<image xlink:href="/media/psf/Home/vmshare/dnsexfil/diagrams/venv/lib/python3.12/site-packages/resources/aws/storage/simple-storage-service-s3.png" width="101px" height="101px" preserveAspectRatio="xMinYMin meet" x="16.5" y="-161"/>
<text text-anchor="middle" x="67" y="-45.6" font-family="Sans-Serif" font-size="13.00" fill="#2d3436">Results</text>
</g>
<!-- 8e58f49ca503467cb39a4a142e039114 -->
<g id="node7" class="node">
<title>8e58f49ca503467cb39a4a142e039114</title>
<image xlink:href="/media/psf/Home/vmshare/dnsexfil/diagrams/venv/lib/python3.12/site-packages/resources/aws/analytics/athena.png" width="101px" height="101px" preserveAspectRatio="xMinYMin meet" x="16.5" y="-352"/>
<text text-anchor="middle" x="67" y="-236.6" font-family="Sans-Serif" font-size="13.00" fill="#2d3436">Athena</text>
</g>
<!-- ccc2fcfbf5264749a59771fb9d05fdce&#45;&gt;8e58f49ca503467cb39a4a142e039114 -->
<g id="edge5" class="edge">
<title>ccc2fcfbf5264749a59771fb9d05fdce&#45;&gt;8e58f49ca503467cb39a4a142e039114</title>
<path fill="none" stroke="#7b8894" d="M67,-423.81C67,-423.81 67,-380.22 67,-380.22"/>
<polygon fill="#7b8894" stroke="#7b8894" points="70.5,-380.22 67,-370.22 63.5,-380.22 70.5,-380.22"/>
</g>
<!-- 8e58f49ca503467cb39a4a142e039114&#45;&gt;cfe3226389a54cfb94a2346367f3cb7e -->
<g id="edge6" class="edge">
<title>8e58f49ca503467cb39a4a142e039114&#45;&gt;cfe3226389a54cfb94a2346367f3cb7e</title>
<path fill="none" stroke="#7b8894" d="M67,-232.81C67,-232.81 67,-189.22 67,-189.22"/>
<polygon fill="#7b8894" stroke="#7b8894" points="70.5,-189.22 67,-179.22 63.5,-189.22 70.5,-189.22"/>
</g>
</g>
</svg>
